<svg width="621" height="448" viewBox="0 0 621 448" fill="none" xmlns="http://www.w3.org/2000/svg">
<path d="M254.326 197.186C254.326 241.219 223.654 274.375 179.407 274.375C135.161 274.375 92.5007 239.465 93.911 195.432C95.6738 141.049 132.516 116.488 176.763 116.488C221.009 116.488 254.326 153.153 254.326 197.186Z" fill="#4EDDBB"/>
<path d="M127.581 255.253C124.76 258.762 122.116 262.446 119.648 266.13C118.414 268.06 121.411 269.814 122.645 267.884C124.936 264.376 127.404 260.867 129.872 257.709C131.459 255.955 128.991 253.499 127.581 255.253Z" fill="#4EDDBB"/>
<path d="M197.211 108.243C195.272 115.085 193.157 121.927 191.218 128.593C190.513 130.698 194.038 131.751 194.567 129.47C196.506 122.628 198.622 115.787 200.561 109.12C201.266 107.015 197.917 105.963 197.211 108.243Z" fill="#4EDDBB"/>
<path d="M246.923 248.236C243.926 246.131 240.753 244.201 237.403 242.622C235.288 241.745 233.525 244.728 235.641 245.605C238.99 247.184 242.163 249.113 245.16 251.218C246.923 252.622 248.685 249.64 246.923 248.236Z" fill="#4EDDBB"/>
<path d="M127.052 146.662C122.468 141.75 118.59 136.312 115.065 130.523C113.831 128.593 110.834 130.347 112.068 132.277C115.593 138.242 119.824 143.855 124.584 149.118C126.17 150.697 128.638 148.241 127.052 146.662Z" fill="#4EDDBB"/>
<path d="M117.18 124.558C116.827 122.278 113.302 123.33 113.831 125.435C114.183 127.54 111.891 128.418 110.305 127.365C108.366 126.137 106.603 129.119 108.542 130.347C110.481 131.751 113.125 131.751 115.065 130.347C116.827 129.119 117.532 126.839 117.18 124.558Z" fill="#4EDDBB"/>
<path d="M203.381 104.208C202.5 105.085 199.15 106.664 198.974 104.033C198.798 101.752 195.272 101.752 195.449 104.033C195.625 106.313 197.035 108.243 199.327 108.769C201.795 109.296 204.086 108.243 205.673 106.489C207.436 105.085 204.968 102.629 203.381 104.208Z" fill="#4EDDBB"/>
<path d="M122.821 265.955C120 264.376 115.064 266.305 112.42 267.358C110.305 268.235 112.068 271.217 114.183 270.34C115.241 269.814 116.298 269.463 117.356 269.288C118.238 269.112 120.177 268.586 120.882 269.112C121.411 269.463 121.587 271.217 121.763 271.919C121.939 273.147 122.116 274.551 122.116 275.779C122.116 278.059 125.641 278.059 125.641 275.779C125.641 273.147 125.641 267.533 122.821 265.955Z" fill="#4EDDBB"/>
<path d="M250.272 251.569C250.801 251.569 251.153 251.569 251.682 251.394C253.974 251.043 252.916 247.71 250.801 248.061C249.39 248.236 247.98 247.71 246.746 248.412C245.512 249.113 244.983 250.517 245.336 251.92C245.865 255.078 247.451 257.885 249.567 260.165C251.153 261.92 253.621 259.288 252.035 257.709C250.801 256.306 249.743 254.727 249.214 252.973C249.038 252.622 249.038 252.271 248.862 251.92C248.685 251.394 248.333 251.745 249.038 251.394C249.214 251.394 249.919 251.569 250.272 251.569Z" fill="#4EDDBB"/>
<path d="M255.208 166.135C254.15 166.135 253.092 166.31 252.035 165.96C251.506 165.784 250.096 165.609 249.919 165.082C249.743 164.556 250.448 163.328 250.624 162.802C250.977 161.925 251.682 161.223 252.387 160.521C253.974 158.942 251.506 156.486 249.919 158.065C247.98 159.995 245.689 163.504 246.746 166.31C247.98 169.293 252.564 169.644 255.208 169.468C257.499 169.468 257.499 165.96 255.208 166.135Z" fill="#4EDDBB"/>
<path d="M125.818 182.099C124.76 180.169 123.526 178.415 122.292 176.485C121.058 174.556 118.061 176.31 119.295 178.24C120.001 179.292 120.706 180.345 121.234 181.397C121.587 181.924 121.763 182.45 122.116 182.801C122.292 183.152 122.468 183.327 122.645 183.678C122.997 184.029 122.997 184.029 122.645 183.853C122.292 184.38 120.001 184.555 119.472 184.731C118.061 184.906 116.651 185.081 115.241 185.081C112.949 185.081 112.949 188.59 115.241 188.59C117.18 188.59 119.119 188.415 121.058 188.064C122.645 187.713 124.76 187.362 125.818 185.959C127.052 184.731 126.699 183.327 125.818 182.099Z" fill="#788BF1"/>
<path d="M206.202 158.591C204.615 159.82 202.852 160.872 201.09 161.574C199.503 162.276 195.625 163.854 194.038 162.451C192.804 161.223 193.157 158.065 193.333 156.311C193.51 153.855 194.038 151.574 194.038 149.294C194.038 147.013 190.513 147.013 190.513 149.294C190.513 153.153 188.397 159.82 190.689 163.854C190.513 164.03 190.513 164.381 190.689 164.732C190.336 164.907 189.455 166.486 189.455 166.661C189.103 167.363 188.574 168.065 188.221 168.766C187.34 170.345 186.282 171.924 185.401 173.503C184.343 175.433 187.34 177.187 188.397 175.257C189.631 173.152 190.865 170.872 192.099 168.766C192.452 168.065 193.157 167.363 193.51 166.486C195.449 167.012 197.74 166.31 199.503 165.96C202.5 165.082 205.32 163.679 207.788 161.749C209.727 160.346 207.965 157.188 206.202 158.591Z" fill="#788BF1"/>
<path d="M131.635 185.257C129.696 184.731 127.933 184.204 126.17 183.503C125.289 183.152 124.231 183.327 123.702 184.204C123.173 184.906 123.526 186.309 124.407 186.66C126.523 187.537 128.638 188.239 130.754 188.765C133.045 189.116 133.927 185.783 131.635 185.257Z" fill="#788BF1"/>
<path d="M158.606 141.926C158.606 139.645 155.08 139.645 155.08 141.926C155.08 143.68 154.728 145.961 153.318 147.189C151.202 148.767 149.087 146.136 147.677 144.733C146.09 143.154 143.622 145.61 145.209 147.189C146.971 149.118 149.263 151.048 151.907 151.048C152.965 153.504 153.67 155.96 154.023 158.591C154.375 160.872 157.901 160.872 157.548 158.591C157.196 155.609 156.314 152.802 155.257 149.995C157.548 148.241 158.606 144.733 158.606 141.926Z" fill="#788BF1"/>
<path d="M175.176 207.887C175.881 205.607 176.41 203.502 177.115 201.221C177.821 199.116 174.295 198.063 173.766 200.344C173.061 202.624 172.356 205.08 171.651 207.361C168.301 207.887 166.01 211.396 163.718 213.852C162.308 215.606 164.776 218.062 166.186 216.308C167.949 214.378 170.064 210.694 172.885 210.87C176.058 211.22 177.997 214.729 177.997 217.536C177.997 219.816 181.522 219.816 181.522 217.536C181.346 213.501 179.055 209.466 175.176 207.887Z" fill="#788BF1"/>
<path d="M223.83 216.659C221.891 216.132 219.599 215.957 218.012 217.01C217.836 216.834 217.66 216.834 217.484 216.659C216.779 216.483 216.073 215.957 215.721 215.255C214.487 213.326 211.49 215.08 212.724 217.01C213.605 218.413 214.839 219.29 216.25 219.816C215.897 221.746 217.307 223.851 218.541 225.43C219.952 227.185 222.42 224.729 221.009 222.974C220.48 222.448 218.894 220.518 219.952 219.816C220.657 219.29 222.243 219.816 222.948 219.992C225.064 220.694 226.121 217.185 223.83 216.659Z" fill="#788BF1"/>
<path d="M160.721 236.131C160.898 234.202 161.074 232.447 161.074 230.518C161.25 228.237 157.725 228.237 157.548 230.518C157.372 232.272 157.196 234.026 157.196 235.956C155.785 236.131 154.552 236.833 153.494 238.061C152.084 239.815 154.552 242.272 155.962 240.517C157.901 238.237 161.074 239.114 161.603 242.096C161.955 244.377 165.481 243.324 164.952 241.219C164.6 238.587 162.837 236.833 160.721 236.131Z" fill="#788BF1"/>
<path d="M243.397 185.783C242.339 185.432 240.929 185.257 240.048 184.38C238.99 183.327 239.871 182.099 241.105 181.573C243.221 180.871 242.339 177.538 240.224 178.24C238.109 178.941 236.169 180.871 236.169 183.152C235.993 183.152 235.817 183.152 235.641 183.327C234.407 183.853 233.173 184.38 231.939 184.555C231.057 184.731 230.176 185.257 230.176 186.309C230.176 187.187 231.057 188.239 231.939 188.064C233.878 187.888 235.641 187.362 237.227 186.485C238.461 188.064 240.753 188.941 242.692 189.292C244.631 189.643 245.512 186.309 243.397 185.783Z" fill="#788BF1"/>
<path d="M236.698 142.277C235.464 143.505 233.525 144.031 231.939 142.978C230.352 141.926 230.176 139.47 231.41 138.066C232.82 136.312 230.352 133.856 228.942 135.61C226.474 138.417 226.474 142.978 229.471 145.61C232.291 147.89 236.698 147.539 239.166 144.733C240.576 142.978 238.108 140.522 236.698 142.277Z" fill="#788BF1"/>
<path d="M231.234 144.206C230.528 143.505 229.294 143.505 228.766 144.206C227.532 145.61 226.474 147.013 225.24 148.241C224.535 148.943 224.535 149.995 225.24 150.697C225.945 151.399 227.179 151.399 227.708 150.697C228.942 149.294 230 147.89 231.234 146.662C231.762 145.961 231.939 144.908 231.234 144.206Z" fill="#788BF1"/>
<path d="M160.721 193.853C160.016 192.625 159.311 191.397 158.606 190.344C159.311 187.362 158.958 184.731 157.901 181.924C157.019 179.818 154.023 181.573 154.904 183.678C155.433 184.906 155.609 185.959 155.609 187.187C155.08 187.362 154.728 187.537 154.375 188.064C151.907 187.888 149.616 187.537 147.324 186.66C145.209 185.959 144.327 189.292 146.443 189.993C149.439 191.046 152.436 191.572 155.609 191.572C156.491 192.976 157.196 194.204 158.077 195.607C158.782 197.537 161.955 195.783 160.721 193.853Z" fill="#788BF1"/>
<path d="M163.365 112.98C162.131 111.225 158.958 112.98 160.369 114.734C161.074 115.611 161.074 117.015 160.369 117.892C158.782 117.015 157.196 115.787 156.138 114.383C154.904 112.629 151.731 114.383 153.141 116.137C154.199 117.716 155.433 118.944 157.019 119.997C158.43 121.05 160.369 122.453 162.131 121.225C164.599 119.295 165.128 115.436 163.365 112.98Z" fill="#788BF1"/>
<path d="M140.273 213.852C137.1 212.448 134.103 212.098 130.753 212.799C128.462 213.326 129.519 216.659 131.635 216.132C133.398 215.782 135.337 215.782 137.1 216.308C136.571 217.887 136.394 219.641 136.571 221.395C136.923 223.676 140.449 223.676 140.096 221.395C139.92 219.641 140.096 217.887 140.978 216.308C141.33 215.606 141.154 214.203 140.273 213.852Z" fill="#788BF1"/>
<path d="M212.195 272.621C210.961 269.639 207.965 267.533 204.791 268.235C201.618 268.761 199.327 271.919 199.503 275.077C199.679 277.357 203.205 277.357 203.029 275.077C202.852 271.744 207.436 269.989 208.846 273.498C209.551 275.603 212.9 274.726 212.195 272.621Z" fill="#788BF1"/>
<path d="M164.423 270.165C164.952 268.937 165.481 267.884 166.01 266.656C166.362 265.779 166.186 264.727 165.305 264.2C164.599 263.674 163.366 264.025 162.837 264.902C162.308 266.13 161.779 267.358 161.25 268.411C161.074 268.937 161.074 269.463 161.25 269.989C158.077 270.516 155.257 273.147 155.433 276.656C155.609 278.936 159.135 278.936 158.959 276.656C158.782 274.551 161.074 272.972 163.189 273.498C165.657 274.2 166.715 276.831 166.891 279.112C167.067 281.392 170.593 281.392 170.417 279.112C170.064 275.252 168.125 271.217 164.423 270.165Z" fill="#788BF1"/>
<path d="M100.61 156.662C98.8467 155.258 96.3788 157.714 98.1416 159.118C101.138 161.574 99.1993 166.135 95.3211 165.433C93.0295 165.082 92.1481 168.416 94.4397 168.766C97.6128 169.293 101.138 168.065 102.549 164.907C103.783 162.276 103.077 158.591 100.61 156.662Z" fill="#788BF1"/>
<path d="M336.371 235.239C335.668 231.892 335.317 228.369 334.966 225.198C334.439 220.794 334.088 216.214 333.561 211.634C332.683 204.764 331.629 198.07 329.17 191.552C328.468 189.614 327.765 187.853 326.712 186.091C324.604 182.039 321.97 178.164 318.809 174.817C312.311 167.947 304.056 163.543 294.573 163.367C291.763 163.367 288.777 163.719 285.792 164.6C284.913 164.952 284.035 165.305 283.333 165.833C285.44 170.413 288.777 174.289 292.641 177.459C299.841 176.402 305.11 179.045 308.974 183.801C311.081 186.267 312.837 189.438 314.242 192.961C317.579 201.417 319.16 211.458 320.038 219.208C320.214 220.794 320.389 222.203 320.565 223.436C321.092 229.073 321.97 235.062 323.199 240.876C324.604 246.513 326.36 251.973 329.346 256.73C330.4 258.491 331.453 260.077 332.858 261.486L342.869 251.445C339.356 247.217 337.425 241.228 336.371 235.239Z" fill="#FFC741"/>
<path d="M326.712 186.091C324.077 196.484 321.97 207.054 320.565 217.799C320.565 218.328 320.389 218.856 320.213 219.208C319.335 211.458 317.755 201.417 314.418 192.961C315.823 186.796 317.228 180.63 318.984 174.641C321.97 178.164 324.78 182.039 326.712 186.091Z" fill="#2D264F"/>
<path d="M336.371 235.239C333.912 242.461 331.629 249.683 329.522 256.906C326.536 252.15 324.78 246.689 323.375 241.052C326.536 231.187 329.873 221.498 333.385 211.81C333.912 216.39 334.263 220.794 334.79 225.374C335.317 228.369 335.668 231.892 336.371 235.239Z" fill="#2D264F"/>
<path d="M270.337 435C271.215 435 272.093 434.295 272.093 433.238L293.87 156.849C294.221 153.502 288.953 153.502 288.602 156.849L267 433.062C267 434.119 267.702 435 268.756 435H270.337Z" fill="#A9CDFF"/>
<path d="M318.633 435H323.024C324.077 435 324.955 434.119 324.78 432.886C314.594 340.932 304.408 248.979 294.221 157.201C293.87 153.854 288.602 154.911 289.128 158.258C299.315 250.036 306.691 341.637 316.877 433.415C317.052 434.295 317.755 435 318.633 435Z" fill="#A9CDFF"/>
<path d="M96.3725 130.153C96.3725 140.432 88.9874 148.098 78.5402 148.098C67.9128 148.098 57.8259 140.084 58.1861 129.805C58.5464 117.261 67.3725 111.512 77.9998 111.512C88.6271 111.512 96.3725 120.049 96.3725 130.153Z" fill="#4EDDBB"/>
<path d="M100.155 114.126C99.4346 113.429 98.3538 113.603 97.6333 114.126C95.2917 115.868 92.9501 117.61 90.4283 119.526C89.7078 120.049 89.888 121.443 90.4283 121.965C91.1488 122.662 92.2296 122.488 92.9501 121.965C95.2917 120.223 97.6333 118.481 100.155 116.565C100.876 115.868 100.876 114.648 100.155 114.126Z" fill="#4EDDBB"/>
<path d="M83.7638 143.219C83.5837 140.955 79.9812 140.955 80.1613 143.219C80.3414 146.53 80.7017 149.84 80.8818 153.15C81.0619 155.415 84.6644 155.415 84.4843 153.15C84.3042 149.665 83.9439 146.53 83.7638 143.219Z" fill="#4EDDBB"/>
<path d="M69.8943 120.746C68.4533 117.958 67.0123 114.997 65.3912 112.209C64.3104 110.119 61.2483 112.035 62.3291 113.951C63.7701 116.739 65.211 119.7 66.8322 122.488C67.9129 124.404 70.975 122.662 69.8943 120.746Z" fill="#4EDDBB"/>
<path d="M66.8322 109.596C66.2918 107.505 62.8694 108.377 63.4098 110.467C63.5899 110.816 63.0496 111.338 62.6893 110.99C61.9688 110.293 60.8881 110.293 60.1676 110.99C59.4471 111.687 59.4471 112.906 60.1676 113.429C61.6086 114.648 63.4098 114.997 65.0309 113.951C66.652 113.255 67.3725 111.338 66.8322 109.596Z" fill="#4EDDBB"/>
<path d="M104.838 114.3C103.938 114.3 103.037 114.3 102.317 114.126C101.956 114.126 101.776 114.126 101.416 114.126C101.776 113.777 101.956 113.429 102.317 112.906C103.397 110.99 100.155 109.073 99.2545 111.164C98.7142 112.035 97.9937 112.732 97.6334 113.603C97.2732 114.648 97.4533 115.868 98.3539 116.565C99.0744 117.261 100.155 117.436 101.236 117.436C102.497 117.61 103.758 117.61 105.019 117.61C107.18 117.958 107.18 114.474 104.838 114.3Z" fill="#4EDDBB"/>
<path d="M86.826 155.937C85.9253 154.369 84.6645 152.104 82.8632 151.408C80.3415 150.362 79.2608 153.498 78.18 155.066C76.9191 156.982 80.1614 158.725 81.2421 156.808C81.6024 156.286 81.7825 155.937 82.1427 155.415C82.3229 155.589 82.503 155.763 82.503 155.937C82.8632 156.46 83.2235 157.157 83.5837 157.679C84.8446 159.77 87.9067 158.028 86.826 155.937Z" fill="#4EDDBB"/>
<path d="M74.2173 132.418C73.4968 133.115 72.7763 133.638 71.8756 133.986C71.6955 133.986 71.6955 134.16 71.5154 134.16C70.6148 133.812 69.534 133.986 68.6334 133.986C67.7328 134.16 65.9315 134.16 65.3912 135.206C65.2111 135.554 65.2111 136.077 65.7514 136.425C65.7514 136.425 65.7514 136.425 65.9315 136.425C66.2918 136.774 66.8322 136.425 67.1924 136.077C67.7328 135.902 68.8135 135.902 68.9937 135.902C69.7142 135.728 70.7949 135.728 71.3353 136.077C72.9564 137.122 71.8756 139.213 71.3353 140.432C70.975 141.477 72.5961 142 73.1365 140.955C73.857 139.213 74.3974 136.948 73.3166 135.38C74.2173 134.857 74.9378 134.335 75.6583 133.638C76.3788 132.767 75.1179 131.547 74.2173 132.418Z" fill="#788BF1"/>
<path d="M79.8011 115.694C79.9812 114.648 78.3601 114.126 77.9999 115.171C77.8197 115.868 77.6396 116.913 76.9191 117.436C76.739 117.436 76.5589 117.436 76.3787 117.61C75.4781 117.61 74.5775 116.39 73.857 116.042C72.7762 115.519 71.8756 116.913 72.9564 117.61C74.0371 118.307 74.9377 119.178 76.1986 119.352C76.3787 120.049 76.739 120.92 76.9191 121.617C77.2794 122.662 79.0806 122.314 78.7203 121.094C78.5402 120.397 78.18 119.7 77.9999 118.829C79.0806 118.133 79.4408 116.739 79.8011 115.694Z" fill="#788BF1"/>
<path d="M91.8694 130.328C91.1489 129.979 90.2483 129.631 89.5278 128.934C88.8073 128.237 88.4471 126.495 89.8881 126.669C90.9688 126.669 90.9688 124.927 89.8881 124.927C88.6272 124.927 87.5464 125.624 87.1862 126.669C86.2856 126.669 85.2048 126.669 84.3042 126.843C83.2235 126.843 83.2235 128.585 84.3042 128.585C85.2048 128.585 86.2856 128.585 87.1862 128.411C87.7266 130.153 89.3477 131.024 90.7887 131.721C92.0496 132.418 92.9502 130.85 91.8694 130.328Z" fill="#788BF1"/>
<path d="M86.1055 138.516C85.9254 137.645 85.7453 136.774 85.7453 135.902C85.7453 134.857 83.944 134.857 83.944 135.902C83.944 136.948 84.1242 137.993 84.3043 139.038C83.4037 139.735 83.0434 140.955 83.4037 142C83.7639 143.045 85.5652 142.523 85.2049 141.477C85.0248 141.129 85.2049 140.432 85.5652 140.258C85.7453 140.084 86.2857 140.084 86.2857 140.606C86.2857 141.652 88.0869 141.652 88.0869 140.606C88.0869 139.561 87.1863 138.69 86.1055 138.516Z" fill="#788BF1"/>
<path d="M64.8508 124.23C63.77 124.056 62.5091 123.707 61.4284 123.359C61.4284 122.139 60.5278 120.92 59.447 120.049C58.5464 119.352 57.2855 120.572 58.1862 121.268C58.7265 121.791 59.8073 122.662 59.6272 123.359C59.2669 124.056 58.1862 124.056 57.6458 124.23C56.565 124.404 56.9253 126.146 58.1862 125.972C59.0868 125.798 60.1675 125.45 60.888 124.927C62.1489 125.275 63.2296 125.624 64.4905 125.798C65.5713 125.972 66.1116 124.404 64.8508 124.23Z" fill="#788BF1"/>
<path d="M242.019 82.0751C242.019 88.4606 237.621 93.4271 231.288 93.4271C224.956 93.4271 218.799 88.2832 218.975 81.8977C219.151 73.9158 224.604 70.3683 230.937 70.3683C237.093 70.3683 242.019 75.6896 242.019 82.0751Z" fill="#4EDDBB"/>
<path d="M227.946 76.9312L220.91 72.1421C218.975 70.9004 217.215 73.9158 219.15 75.1574C221.437 76.7538 223.9 78.3502 226.187 79.9466C228.122 81.1882 229.881 78.1728 227.946 76.9312Z" fill="#4EDDBB"/>
<path d="M239.028 91.8308C238.325 89.5249 237.621 87.219 236.918 84.9131C236.214 82.7846 232.872 83.6715 233.575 85.8C234.279 88.1059 234.983 90.4118 235.686 92.7176C236.214 95.0235 239.556 94.1366 239.028 91.8308Z" fill="#4EDDBB"/>
<path d="M243.426 74.9801C240.964 75.6896 238.325 76.5765 235.862 77.286C233.751 77.9955 234.631 81.3656 236.742 80.6561C239.204 79.9466 241.843 79.0597 244.306 78.3502C246.593 77.8181 245.713 74.2706 243.426 74.9801Z" fill="#4EDDBB"/>
<path d="M229.881 86.1547L230.761 83.8489C231.113 82.7846 229.529 82.2525 229.002 83.3167C228.65 84.2036 228.298 85.0905 227.946 85.8C226.891 85.9774 225.835 86.8642 225.659 87.9285C225.307 88.9927 227.067 89.5249 227.418 88.4606C227.594 87.7511 228.474 87.3964 229.178 87.5737C230.057 87.9285 230.409 88.8154 230.585 89.7022C230.761 90.7665 232.52 90.4117 232.344 89.1701C231.992 88.1059 231.288 86.8642 229.881 86.1547Z" fill="#788BF1"/>
<path d="M231.64 73.9158C231.816 72.8516 230.233 72.3194 229.881 73.3837C229.705 74.0932 229.705 75.6896 229.002 76.0443C228.122 76.5765 226.891 75.6896 226.187 75.1575C225.307 74.448 224.428 76.0443 225.307 76.7538C226.187 77.4633 227.242 77.9955 228.298 77.9955C228.65 78.5276 229.177 79.0597 229.529 79.5918C230.233 80.4787 231.464 79.2371 230.761 78.3502C230.585 77.9955 230.233 77.8181 230.057 77.4633C231.112 76.7538 231.288 75.3348 231.64 73.9158Z" fill="#788BF1"/>
<path d="M238.501 82.6072C238.149 82.4298 237.093 82.0751 237.269 81.543C237.269 81.1882 238.149 81.1882 238.501 81.1882C239.556 81.1882 239.556 79.4145 238.501 79.4145C237.445 79.4145 236.39 79.7692 235.862 80.6561H235.686C235.51 80.6561 235.158 80.6561 234.982 80.6561C233.927 80.124 233.047 81.7203 234.103 82.2525C234.631 82.4298 235.158 82.6072 235.686 82.4298C236.038 83.3167 237.093 84.0262 238.149 84.381C239.204 84.7357 239.556 82.962 238.501 82.6072Z" fill="#788BF1"/>
<path d="M220.558 69.6588C219.854 68.7719 218.623 70.0136 219.326 70.9004C219.678 71.4326 219.326 72.1421 218.799 72.4968C218.095 73.0289 217.04 72.8516 216.336 72.4968C215.28 72.1421 214.753 73.9158 215.808 74.2706C217.391 74.6253 219.151 74.8027 220.382 73.3837C221.437 72.3194 221.437 70.7231 220.558 69.6588Z" fill="#4EDDBB"/>
<path d="M247.12 77.9955C246.417 77.9955 245.713 77.6407 245.713 76.9312C245.537 76.0443 246.241 75.3348 246.769 74.6253C247.472 73.7384 246.241 72.4968 245.537 73.3837C244.658 74.6253 243.602 76.0443 244.13 77.6407C244.482 79.0597 245.889 79.7692 247.296 79.7692C248.176 79.5918 248.176 77.8181 247.12 77.9955Z" fill="#4EDDBB"/>
<path d="M221.789 85.2679C221.261 83.8489 219.854 83.3167 218.447 83.1393C218.271 83.1393 218.271 82.962 218.095 83.1393C217.919 83.1393 217.743 83.1393 217.567 83.1393C216.512 83.1393 216.512 84.9131 217.567 84.9131C218.623 84.9131 219.854 84.9131 220.206 85.9774C220.558 86.6869 220.382 87.5737 219.678 88.1059C218.799 88.9927 220.03 90.057 220.91 89.3475L221.261 88.9927C221.437 88.8154 221.437 88.8154 221.437 88.638C222.141 87.5737 222.317 86.3321 221.789 85.2679Z" fill="#4EDDBB"/>
<path d="M242.019 93.9593C241.315 92.7176 239.908 92.0081 238.501 92.3629C236.742 92.7176 236.214 94.1366 235.686 95.733C235.334 96.7973 236.917 97.3294 237.445 96.2651C237.797 95.3783 237.973 94.4914 238.853 94.1366C239.556 93.9593 240.26 94.314 240.612 94.8461C240.963 95.9104 242.547 95.0235 242.019 93.9593Z" fill="#4EDDBB"/>
<path d="M317.728 44.0783C309.173 58.7532 300.618 73.6029 292.237 88.2779C291.19 90.1996 294.158 91.9466 295.205 90.0249C303.76 75.3499 312.316 60.5003 320.696 45.8253C321.918 43.9036 318.776 42.1565 317.728 44.0783Z" fill="#FFC741"/>
<path d="M236.367 2.49918C234.621 13.6801 232.875 25.0357 231.304 36.2167C230.954 38.4878 234.272 39.3613 234.621 37.0902C236.367 25.9093 238.113 14.5536 239.684 3.37269C240.033 1.27626 236.716 0.22805 236.367 2.49918Z" fill="#FFC741"/>
<path d="M318.687 147.722C306.516 147.546 281.82 148.25 279.703 164.974C279.174 169.022 281.291 171.135 283.76 167.79C290.463 158.108 295.403 154.94 297.167 162.333C300.165 176.064 280.585 168.846 274.764 175.536C269.648 181.169 283.231 176.592 289.405 178.88C295.579 181.345 275.646 178.88 276.351 183.105C276.881 186.978 294.344 183.809 293.991 184.865C293.109 186.978 277.586 188.914 282.525 191.026C290.463 194.547 309.162 183.985 322.745 182.753C336.857 181.345 318.687 147.722 318.687 147.722Z" fill="#788BF1"/>
<path d="M422.587 73.084C412.532 76.9567 409.886 85.0543 398.42 110.579C390.835 127.654 388.189 136.28 383.956 142.617C379.369 144.554 327.331 147.018 318.511 147.722C320.452 159.164 321.157 170.959 322.216 182.577L351.674 180.288C351.674 180.288 393.128 177.648 400.89 173.423C414.473 166.206 424.88 138.745 433.171 126.422C443.226 111.283 451.34 104.946 461.395 89.9832C474.096 71.1476 443.755 65.1625 422.587 73.084Z" fill="#E4E9FF"/>
<path d="M394.716 144.378C392.246 144.026 389.6 143.497 387.131 143.145C386.072 142.969 385.543 144.73 386.601 144.906C389.071 145.258 391.717 145.786 394.187 146.138C395.245 146.138 395.774 144.554 394.716 144.378Z" fill="#2D264F"/>
<path d="M297.167 160.573C293.109 168.494 282.525 165.502 275.999 168.494C271.589 170.607 271.589 173.423 280.056 173.423C288.523 173.423 299.46 175.536 299.813 168.142C299.989 160.749 297.167 160.573 297.167 160.573Z" fill="#788BF1"/>
<path d="M314.807 164.093C310.22 169.726 303.517 164.621 299.636 161.101C298.754 160.397 297.519 161.629 298.401 162.333C302.988 166.382 310.926 171.839 316.041 165.326C316.747 164.445 315.512 163.213 314.807 164.093Z" fill="#E4E9FF"/>
<path d="M294.344 168.67C292.933 169.022 291.346 169.374 289.934 169.55C288.876 169.726 289.229 171.487 290.464 171.311C291.875 170.959 293.462 170.607 294.874 170.431C295.932 170.078 295.579 168.494 294.344 168.67Z" fill="#E4E9FF"/>
<path d="M570.41 185.921C572.703 197.716 574.997 212.15 583.287 219.896C586.286 222.712 591.225 222.36 589.109 218.664C586.463 213.911 584.699 207.574 587.345 204.581C596.517 194.019 598.987 219.016 606.749 223.417C613.275 227.113 607.983 216.375 607.101 208.454C606.396 201.941 609.924 221.832 613.981 220.424C617.685 219.016 612.217 205.109 613.275 205.285C615.569 205.813 619.273 217.96 620.508 212.679C622.272 204.229 608.16 188.034 604.103 175.183C599.516 161.277 570.41 185.921 570.41 185.921Z" fill="#788BF1"/>
<path d="M470.215 83.646C485.033 89.4551 552.241 123.782 551.888 122.901C554.711 126.95 567.764 177.296 570.41 185.745C581.347 181.345 592.637 178.352 603.926 175.007L588.756 123.606C586.286 115.332 584.346 106.706 578.701 100.017C573.938 94.3841 555.593 85.2303 537.424 75.9005C517.843 65.6906 497.91 55.4807 484.504 58.2972C461.924 62.8741 449.223 75.3724 470.215 83.646Z" fill="#E4E9FF"/>
<path d="M583.817 203.349C592.108 204.581 592.637 220.424 598.458 224.473C604.279 228.522 601.457 217.96 597.929 207.398C594.401 196.836 583.817 203.349 583.817 203.349Z" fill="#788BF1"/>
<path d="M603.397 220.072L599.34 208.278C598.987 207.222 597.223 207.75 597.576 208.806C598.987 212.679 600.398 216.551 601.633 220.6C602.162 221.656 603.75 221.128 603.397 220.072Z" fill="#E4E9FF"/>
<path d="M555.24 117.62C555.063 116.564 553.299 116.564 553.476 117.62C553.652 119.205 553.829 120.789 554.005 122.373C554.181 123.43 555.945 123.43 555.769 122.373C555.593 120.789 555.416 119.205 555.24 117.62Z" fill="#2D264F"/>
<path d="M383.074 422.334C381.486 430.432 370.02 430.256 360.142 435.713C351.322 440.642 353.086 444.515 353.086 444.515H423.998C423.998 444.515 425.41 448.74 421.882 422.334C418.354 395.929 383.074 422.334 383.074 422.334Z" fill="#788BF1"/>
<path d="M520.842 422.334C521.547 431.664 505.848 430.432 495.969 435.713C486.797 440.642 488.913 444.515 488.913 444.515H561.237C561.237 444.515 563.707 448.74 560.179 422.334C556.651 395.929 520.842 422.334 520.842 422.334Z" fill="#788BF1"/>
<path d="M560.003 422.335H520.842C506.906 342.767 496.322 272.53 478.506 193.667C435.817 264.608 411.827 340.127 421.705 422.335H382.897C374.077 337.838 391.188 251.406 432.642 177.296C432.642 172.895 419.588 121.493 418.883 106.706C417.472 77.1328 431.936 81.3576 424.704 62.1699C423.822 59.7055 422.94 57.417 422.234 55.3046C418.883 45.7988 416.59 38.0533 415.178 31.7161C411.474 13.4086 416.06 6.36731 428.232 2.31854C454.692 -6.48314 456.456 11.6483 474.625 47.5592C479.564 57.7691 499.145 67.2749 501.614 78.7171C501.967 80.1254 502.32 81.7096 502.673 83.1179C506.377 99.6651 509.729 114.1 512.375 126.422C520.313 161.981 524.017 180.64 524.017 180.817C542.892 298.407 545.538 324.812 560.003 422.335Z" fill="#E4E9FF"/>
<path d="M512.728 126.07C486.091 101.249 492.794 84.8783 503.026 82.7659C506.73 99.137 510.082 113.572 512.728 126.07Z" fill="#788BF1"/>
<path d="M474.272 186.802C469.862 184.689 465.276 182.929 460.513 181.345C459.455 180.993 458.926 182.753 459.984 183.105C464.57 184.689 468.98 186.45 473.214 188.386C474.272 188.914 475.154 187.33 474.272 186.802Z" fill="#2D264F"/>
<path d="M423.116 54.9526C422.94 54.9526 422.587 55.1286 422.411 55.1286C421 51.0798 419.588 47.2071 418.53 43.6864C417.119 39.2856 416.06 35.2368 415.355 31.5401C418.177 30.836 420.823 30.1318 423.116 29.6037C426.644 28.7236 429.643 27.8434 432.289 27.3153C441.109 25.2029 444.814 25.907 447.283 35.0608C451.164 48.9674 441.991 50.5517 423.116 54.9526Z" fill="#A9CDFF"/>
<path d="M441.815 33.4765C443.932 34.0046 445.696 34.8847 447.46 35.7649C447.46 35.4128 447.283 35.2368 447.283 34.8847C443.579 21.1541 437.052 26.4351 415.355 31.3641C415.531 32.0682 415.708 32.7723 415.884 33.4765C424.528 33.6525 433.348 31.3641 441.815 33.4765Z" fill="#2D264F"/>
<path d="M432.289 27.1393C429.29 36.469 426.115 45.6228 423.116 54.9526C422.94 54.9526 422.587 55.1286 422.411 55.1286C421 51.0798 419.588 47.2071 418.53 43.6864C420.118 38.9335 421.705 34.3566 423.116 29.6037C426.821 28.5475 429.82 27.6674 432.289 27.1393Z" fill="#F8F8F6"/>
<path d="M435.288 28.1955C433.524 27.3153 431.231 34.8847 432.113 35.9409C433.7 37.8773 435.288 35.2368 435.817 34.0046C436.523 32.5963 437.228 29.0756 435.288 28.1955Z" fill="#F8F8F6"/>
<path d="M446.93 72.908C446.754 71.8518 444.99 72.2039 445.166 73.4361C452.575 106.882 459.102 140.505 464.57 174.303C464.747 175.359 466.511 175.007 466.334 173.775C460.69 139.977 454.339 106.354 446.93 72.908Z" fill="#788BF1"/>
<path d="M445.166 73.26L439.169 83.646L444.461 87.1667L445.166 73.26Z" fill="#788BF1"/>
<path d="M523.841 202.117C512.022 201.588 507.788 189.266 505.142 179.584C504.79 178.528 503.202 178.88 503.378 180.112C506.201 190.498 510.964 203.349 523.664 203.877C524.899 203.877 524.899 202.117 523.841 202.117Z" fill="#788BF1"/>
<path d="M437.581 177.648C435.464 184.689 431.407 190.674 425.762 195.427C424.88 196.131 426.115 197.364 426.997 196.66C432.818 191.731 436.875 185.393 439.169 178C439.521 177.12 437.934 176.592 437.581 177.648Z" fill="#788BF1"/>
<path d="M417.472 324.284C415.708 320.235 413.944 316.01 412.18 311.961C411.65 310.905 410.239 311.785 410.592 312.842C412.356 316.89 414.12 321.115 415.884 325.164C416.413 326.22 418.001 325.34 417.472 324.284Z" fill="#788BF1"/>
<path d="M530.191 430.784C527.016 429.2 523.841 427.615 520.842 426.031C519.784 425.503 518.902 427.087 519.96 427.615C523.135 429.2 526.31 430.784 529.309 432.368C530.191 432.896 531.073 431.312 530.191 430.784Z" fill="#FFC741"/>
<path d="M395.245 427.792C390.659 426.735 386.249 425.855 381.662 424.799C380.604 424.623 380.075 426.207 381.133 426.559C385.72 427.615 390.13 428.496 394.716 429.552C395.951 429.728 396.304 428.144 395.245 427.792Z" fill="#FFC741"/>
<path d="M418.883 104.946C418.53 103.89 416.942 104.242 417.119 105.298C419.941 117.092 422.587 128.887 424.704 140.857C424.88 141.913 426.644 141.561 426.468 140.505C424.351 128.711 421.882 116.74 418.883 104.946Z" fill="#2D264F"/>
<path d="M296.794 162.592C296.266 163.296 295.208 164.529 293.975 165.586C293.27 166.114 292.741 166.467 292.389 166.995C289.569 170.165 286.926 173.159 284.635 176.33C283.93 177.21 283.226 178.267 282.521 179.148C280.758 181.614 278.996 184.256 277.41 186.721C273.886 192.357 270.714 197.994 267.718 203.454C265.78 206.976 263.665 210.499 261.727 213.845C257.145 221.419 251.859 228.64 244.986 235.333C244.458 235.861 243.753 236.39 243.224 237.094C240.581 239.384 237.937 241.497 235.118 243.611C227.188 249.247 218.201 253.826 208.861 256.997C204.808 258.406 200.579 259.462 196.35 260.343C189.301 261.752 182.076 262.457 174.851 262.28C174.146 262.28 173.442 262.28 172.737 262.28C168.331 262.104 164.102 261.752 160.049 261.048C150.533 259.462 141.899 256.644 133.969 252.77C128.506 250.128 123.396 246.957 118.638 243.435C108.065 235.861 98.725 226.35 90.0904 215.783C85.1562 209.794 80.3984 203.454 75.8167 196.937C70.7064 189.892 65.7722 182.494 60.8381 175.273V150.615C62.9528 153.609 65.0674 156.603 67.0058 159.598C68.4155 161.535 69.649 163.472 70.8826 165.41C75.288 171.927 79.6935 178.619 84.2752 185.136C90.619 194.295 97.1391 203.101 104.364 211.203C110.532 218.248 117.052 224.589 124.1 230.049C130.621 234.981 137.493 239.208 145.07 242.202C150.533 244.491 156.172 246.077 162.34 247.133C167.979 248.014 173.97 248.542 180.314 248.19C180.667 248.19 181.019 248.19 181.371 248.19C186.129 248.014 190.887 247.31 195.469 246.253C202.518 244.668 209.214 242.202 215.558 239.032C219.611 236.918 223.664 234.452 227.364 231.634C234.237 226.526 240.228 220.538 245.339 213.493C245.515 213.317 245.515 213.317 245.515 213.141C247.806 209.97 250.096 206.448 252.211 203.101C255.735 197.641 259.26 192.181 262.784 186.897C265.251 183.199 267.895 179.676 270.714 176.33C273.534 172.807 276.705 169.637 280.054 166.643C289.217 161.007 288.336 161.887 296.794 162.592Z" fill="#FFC741"/>
<path d="M37.2249 434.182C38.2822 434.182 39.1633 433.477 39.1633 432.421C46.5645 338.896 53.9656 245.372 61.3668 151.848C61.7192 148.501 56.4327 148.501 56.0802 151.848C48.6791 244.491 38.6346 339.601 31.2335 432.245C31.0572 433.301 32.1146 434.358 33.1719 434.358H37.2249V434.182Z" fill="#788BF1"/>
<path d="M56.6089 152.905C67.0058 246.781 77.5789 340.834 87.9757 434.71C88.3282 438.057 93.6147 437 93.0861 433.654C82.6892 339.777 72.1161 245.724 61.7192 151.848C61.543 148.501 56.2565 149.558 56.6089 152.905Z" fill="#788BF1"/>
<path d="M55.9039 152.905L53.7893 174.04C53.7893 174.04 60.838 184.079 65.2435 180.557L62.0716 152.905C62.0716 152.905 58.7234 158.717 55.9039 152.905Z" fill="#FFC741"/>
<path d="M64.3625 162.592C64.01 163.648 63.1289 164.705 62.0716 165.586C61.8954 165.762 61.7192 165.938 61.543 165.938C61.3668 165.938 61.1905 166.114 61.0143 166.29C59.7808 167.347 58.7235 169.108 58.0186 171.046C56.6089 174.745 56.0802 179.5 55.3753 182.142V182.318C54.1418 187.954 53.0845 193.414 51.1461 198.874C50.9699 199.226 50.9699 199.579 50.7937 199.755C48.8553 204.686 46.212 209.266 42.5114 213.141C41.4541 214.197 40.3968 215.254 39.1633 216.135C36.3438 212.436 33.3481 208.737 30.5286 205.039C34.934 201.516 37.2249 196.585 38.8108 191.125C39.6919 188.13 40.2206 185.136 40.9254 181.966C41.2779 180.205 41.6303 178.267 41.9827 176.506C41.9827 176.154 42.159 175.801 42.159 175.449C43.2163 169.989 44.8022 164.705 47.6217 160.302C49.3839 157.66 51.4985 155.37 54.4942 153.609C56.0802 152.729 57.49 152.376 58.8997 152.552C59.6046 152.729 60.3094 152.905 61.0143 153.257C63.8338 155.194 65.596 159.245 64.3625 162.592Z" fill="#FFC741"/>
<path d="M90.0902 215.43C85.1561 209.442 80.3982 203.101 75.8165 196.585C74.0543 186.017 72.4683 175.625 71.0586 165.058C75.464 171.574 79.8695 178.267 84.4512 184.784C86.0371 194.999 87.9755 205.215 90.0902 215.43Z" fill="#2D264F"/>
<path d="M133.968 252.241C128.506 249.599 123.395 246.429 118.637 242.906C114.056 232.162 109.298 221.419 104.54 210.675C110.708 217.72 117.228 224.061 124.276 229.521C127.625 237.094 130.797 244.668 133.968 252.241Z" fill="#2D264F"/>
<path d="M174.851 261.928C174.146 261.928 173.441 261.928 172.737 261.928C168.331 261.752 164.102 261.4 160.049 260.695C154.939 254.531 150.004 248.19 145.247 242.026C150.709 244.315 156.348 245.901 162.516 246.957C166.569 251.713 170.622 256.82 174.851 261.928Z" fill="#2D264F"/>
<path d="M208.861 256.644C204.808 258.053 200.579 259.11 196.35 259.991C191.416 255.94 186.482 251.889 181.547 247.662C186.305 247.486 191.063 246.781 195.645 245.724C200.05 249.423 204.456 252.946 208.861 256.644Z" fill="#2D264F"/>
<path d="M244.986 235.157C244.457 235.685 243.753 236.213 243.224 236.918C240.581 239.208 237.937 241.321 235.118 243.435C228.598 242.026 222.078 240.617 215.91 238.679C219.963 236.566 224.016 234.1 227.717 231.282C233.356 232.691 239.171 233.924 244.986 235.157Z" fill="#2D264F"/>
<path d="M267.718 203.277C265.78 206.8 263.665 210.323 261.727 213.669C256.44 213.493 250.977 213.317 245.691 212.788C247.982 209.618 250.273 206.095 252.387 202.749C257.498 203.101 262.608 203.277 267.718 203.277Z" fill="#2D264F"/>
<path d="M284.635 176.154C283.93 177.034 283.225 178.091 282.521 178.972C280.758 181.437 278.996 184.079 277.41 186.545C272.652 186.545 267.894 186.545 263.137 186.545C265.604 182.846 268.247 179.324 271.066 175.977C274.238 175.977 277.41 175.977 280.582 176.154C281.992 176.154 283.225 176.154 284.635 176.154Z" fill="#2D264F"/>
<path d="M58.7233 152.729C55.3752 156.779 52.027 161.007 49.0313 165.234C48.3264 166.29 47.4454 167.347 46.7405 168.58C48.1502 172.631 49.56 176.682 51.3222 180.733C52.027 179.676 52.7319 178.619 53.4368 177.563C54.8465 175.449 56.4325 173.336 57.8422 171.222C58.8995 169.813 59.7806 168.58 60.8379 167.171C61.1904 166.643 61.5428 166.114 62.0715 165.586C62.7763 164.529 63.6574 163.648 64.3623 162.592C65.2434 161.535 66.1245 160.302 67.1818 159.245C65.0672 156.075 59.4282 151.848 58.7233 152.729Z" fill="#2D264F"/>
<path d="M55.1992 182.494C53.9656 188.13 52.9083 193.59 50.9699 199.05C50.7937 199.403 50.7937 199.755 50.6175 199.931C48.6791 194.823 46.7407 189.892 44.8023 184.784C43.745 182.142 42.8639 179.324 41.8066 176.506C41.8066 176.33 41.6304 176.154 41.6304 176.154C41.8066 175.977 41.8066 175.801 41.9828 175.625C43.0401 170.165 44.6261 164.881 47.4456 160.478C47.9742 162.063 48.5029 163.648 49.0315 165.234C50.4413 169.285 51.851 173.336 53.437 177.563C53.9656 179.148 54.4943 180.733 55.1992 182.494Z" fill="#2D264F"/>
<path d="M42.3351 213.141C41.2778 214.197 40.2205 215.254 38.987 216.135C36.1675 212.436 33.1718 208.737 30.3523 205.039C34.7578 201.516 37.0486 196.585 38.6346 191.125C39.5156 198.522 40.7492 205.919 42.3351 213.141Z" fill="#2D264F"/>
<path d="M31.9943 347.758L-16.3388 438.686C-17.9206 441.665 -15.8116 445.344 -12.4722 445.344L97.903 447.621C101.594 447.621 103.879 443.592 101.77 440.613L39.5518 347.408C37.97 344.604 33.5761 344.78 31.9943 347.758Z" fill="#FF6B57"/>
<path fill-rule="evenodd" clip-rule="evenodd" d="M-0.169206 435.533L85.7758 437.285C87.5334 437.285 88.9394 436.409 89.6424 435.182C90.5212 433.781 90.3455 432.029 89.4667 430.627L41.1336 358.27C40.2548 357.043 38.8488 356.343 37.267 356.343C35.6852 356.343 34.2791 357.219 33.5761 358.62L-4.03585 429.225C-4.73888 430.452 -4.56312 432.029 -3.8601 433.43C-3.15707 434.657 -1.75102 435.533 -0.169206 435.533ZM-2.27829 429.751L35.3336 359.146C35.6852 358.27 36.5639 357.744 37.4427 357.569C38.3215 357.569 39.2003 358.095 39.7276 358.795L88.0606 431.153C88.7636 432.029 88.7637 433.08 88.2364 433.956C87.7091 434.832 86.8303 435.357 85.7758 435.357L0.00655079 433.605C-1.04799 433.605 -1.75102 433.255 -2.27829 432.379C-2.6298 431.503 -2.6298 430.627 -2.27829 429.751Z" fill="white"/>
<path d="M44.2971 379.119C43.9456 374.038 35.8608 373.863 36.2123 379.119C36.9153 388.93 37.2668 398.741 37.2668 408.727C37.2668 413.983 45.3517 413.983 45.3517 408.727C45.3517 398.916 45.0001 388.93 44.2971 379.119Z" fill="white"/>
<path d="M41.8366 415.91C39.7275 416.086 37.7942 417.662 37.7942 419.94V422.918C37.7942 425.021 39.7275 426.948 41.8366 426.948C43.9457 426.773 45.879 425.196 45.879 422.918V419.94C45.879 417.662 44.1214 415.735 41.8366 415.91Z" fill="white"/>
</svg>
